<mxfile host="app.diagrams.net" modified="2022-10-04T08:54:01.118Z" agent="5.0 (Windows NT 10.0; Win64; x64) AppleWebKit/537.36 (KHTML, like Gecko) Chrome/105.0.0.0 Safari/537.36 Edg/105.0.1343.53" version="20.4.0" etag="FM8952qLidZ-F92Fyo3z" type="github">
  <diagram id="C5RBs43oDa-KdzZeNtuy" name="Page-1">
    <mxGraphModel dx="1421" dy="794" grid="1" gridSize="10" guides="1" tooltips="1" connect="1" arrows="1" fold="1" page="1" pageScale="1" pageWidth="827" pageHeight="1169" math="0" shadow="0">
      <root>
        <mxCell id="WIyWlLk6GJQsqaUBKTNV-0" />
        <mxCell id="WIyWlLk6GJQsqaUBKTNV-1" parent="WIyWlLk6GJQsqaUBKTNV-0" />
        <mxCell id="uZk0xhnY_ADTM3iIJit7-0" value="коней" style="ellipse;whiteSpace=wrap;html=1;" vertex="1" parent="WIyWlLk6GJQsqaUBKTNV-1">
          <mxGeometry x="330" y="430" width="120" height="80" as="geometry" />
        </mxCell>
        <mxCell id="uZk0xhnY_ADTM3iIJit7-7" value="" style="edgeStyle=orthogonalEdgeStyle;rounded=0;orthogonalLoop=1;jettySize=auto;html=1;" edge="1" parent="WIyWlLk6GJQsqaUBKTNV-1" source="uZk0xhnY_ADTM3iIJit7-1" target="uZk0xhnY_ADTM3iIJit7-6">
          <mxGeometry relative="1" as="geometry" />
        </mxCell>
        <mxCell id="uZk0xhnY_ADTM3iIJit7-1" value="начало" style="ellipse;whiteSpace=wrap;html=1;" vertex="1" parent="WIyWlLk6GJQsqaUBKTNV-1">
          <mxGeometry x="330" y="30" width="120" height="80" as="geometry" />
        </mxCell>
        <mxCell id="uZk0xhnY_ADTM3iIJit7-11" value="" style="edgeStyle=orthogonalEdgeStyle;rounded=0;orthogonalLoop=1;jettySize=auto;html=1;" edge="1" parent="WIyWlLk6GJQsqaUBKTNV-1" source="uZk0xhnY_ADTM3iIJit7-2" target="uZk0xhnY_ADTM3iIJit7-10">
          <mxGeometry relative="1" as="geometry" />
        </mxCell>
        <mxCell id="uZk0xhnY_ADTM3iIJit7-2" value="&lt;p class=&quot;MsoNormal&quot;&gt;i=(x+y):2*√(ln(x+y)/(x*y))&lt;/p&gt;" style="rounded=0;whiteSpace=wrap;html=1;" vertex="1" parent="WIyWlLk6GJQsqaUBKTNV-1">
          <mxGeometry x="250" y="240" width="200" height="60" as="geometry" />
        </mxCell>
        <mxCell id="uZk0xhnY_ADTM3iIJit7-8" value="" style="edgeStyle=orthogonalEdgeStyle;rounded=0;orthogonalLoop=1;jettySize=auto;html=1;" edge="1" parent="WIyWlLk6GJQsqaUBKTNV-1" source="uZk0xhnY_ADTM3iIJit7-6" target="uZk0xhnY_ADTM3iIJit7-2">
          <mxGeometry relative="1" as="geometry" />
        </mxCell>
        <mxCell id="uZk0xhnY_ADTM3iIJit7-6" value="ввод:x,y,i" style="shape=parallelogram;perimeter=parallelogramPerimeter;whiteSpace=wrap;html=1;fixedSize=1;" vertex="1" parent="WIyWlLk6GJQsqaUBKTNV-1">
          <mxGeometry x="330" y="140" width="120" height="60" as="geometry" />
        </mxCell>
        <mxCell id="uZk0xhnY_ADTM3iIJit7-12" value="" style="edgeStyle=orthogonalEdgeStyle;rounded=0;orthogonalLoop=1;jettySize=auto;html=1;" edge="1" parent="WIyWlLk6GJQsqaUBKTNV-1" source="uZk0xhnY_ADTM3iIJit7-10" target="uZk0xhnY_ADTM3iIJit7-0">
          <mxGeometry relative="1" as="geometry" />
        </mxCell>
        <mxCell id="uZk0xhnY_ADTM3iIJit7-10" value="вывод:i" style="shape=parallelogram;perimeter=parallelogramPerimeter;whiteSpace=wrap;html=1;fixedSize=1;" vertex="1" parent="WIyWlLk6GJQsqaUBKTNV-1">
          <mxGeometry x="330" y="340" width="120" height="60" as="geometry" />
        </mxCell>
      </root>
    </mxGraphModel>
  </diagram>
</mxfile>
